<svg xmlns="http://www.w3.org/2000/svg" xmlns:xlink="http://www.w3.org/1999/xlink" width="63" height="28" fill="none" xmlns:v="https://vecta.io/nano"><path d="M26.857 1.307l2 1.155V.152l-2 1.155zm9.6 0l-2-1.155v2.309l2-1.155zm-7.8.2h6v-.4h-6v.4z" fill="#272932"/><path fill-rule="evenodd" d="M31.78 10.499h-.877c-.804-.073-3.07-.417-5.702-1.206l4.167 6.196c.274-.822 1.097-1.59 1.755-1.59h.383v.009h.658c.658 0 1.48.768 1.755 1.59l4.167-6.196c-2.632.79-4.898 1.133-5.702 1.206h-.602v-.009z" fill="url(#C)"/><g filter="url(#A)"><path d="M9.973 9.65c3.641-.263 6.799.055 8.992.384 1.316.179 4.057.493 6.47 1.974s.822 8.553-2.413 11.514-9.54 2.413-13.049 1.097-4.222-6.963-4.386-8.608-.164-6.031 4.386-6.36z" fill="url(#D)"/><path d="M18.9054 10.4296L18.9054 10.4296L18.9108 10.4303C18.9669 10.438 19.0253 10.4458 19.086 10.454C20.4618 10.639 22.9939 10.9794 25.2254 12.3488C25.6845 12.6305 26.0035 13.2117 26.1349 14.0753C26.265 14.9304 26.1986 15.9946 25.9551 17.1255C25.4664 19.395 24.2905 21.8188 22.7521 23.2269C21.2359 24.6145 18.9637 25.2068 16.5889 25.2741C14.2218 25.3412 11.8197 24.8839 10.1132 24.244C8.52924 23.65 7.52843 22.0544 6.902 20.3031C6.28144 18.5681 6.06583 16.7843 5.98446 15.9705C5.90435 15.1694 5.87056 13.7403 6.3817 12.488C6.63461 11.8683 7.017 11.3016 7.58604 10.8702C8.15359 10.4399 8.93022 10.1266 10.0016 10.0491C13.6034 9.78876 16.7303 10.1033 18.9054 10.4296Z" stroke="url(#E)" stroke-width=".8"/></g><g filter="url(#B)"><path d="M53.342 9.65c-3.641-.263-6.799.055-8.992.384-1.316.179-4.057.493-6.47 1.974s-.822 8.553 2.412 11.514 9.54 2.413 13.049 1.097 4.222-6.963 4.386-8.608.164-6.031-4.386-6.36z" fill="url(#F)"/><path d="M44.409 10.4296L44.409 10.4296L44.4036 10.4303C44.3476 10.438 44.2891 10.4458 44.2284 10.454C42.8526 10.639 40.3205 10.9794 38.0891 12.3488C37.6299 12.6305 37.311 13.2117 37.1796 14.0753C37.0494 14.9304 37.1158 15.9946 37.3594 17.1255C37.8481 19.395 39.0239 21.8188 40.5624 23.2269C42.0785 24.6145 44.3508 25.2068 46.7255 25.2741C49.0927 25.3412 51.4948 24.8839 53.2012 24.244C54.7852 23.65 55.786 22.0544 56.4125 20.3031C57.033 18.5681 57.2486 16.7843 57.33 15.9705C57.4101 15.1694 57.4439 13.7403 56.9327 12.488C56.6798 11.8683 56.2975 11.3016 55.7284 10.8702C55.1609 10.4399 54.3842 10.1266 53.3128 10.0491C49.7111 9.78876 46.5842 10.1033 44.409 10.4296Z" stroke="url(#G)" stroke-width=".8"/></g><path d="M30.918 10.796l-.027.299.014.001h.014v-.3zM25.215 9.59l-.086.287.086-.287zM7.999 7.726l.013.3-.013-.3zm-6.031.439l.079.289-.079-.289zm-.493 3.728l-.298.035.001.007.297-.042zm.493.493l.073-.291h0l-.073.291zm1.645 2.742l.294-.059h0l-.294.059zm.057.286l.294-.058-.294.058zM6.628 23.9l.227-.196-.227.196zm19.355-1.261l-.243-.176.243.176zm3.375-6.78l.285.095h0l-.285-.095zm.024-.074l-.285-.095h0l.285.095zm4.551 0l.285-.095h0l-.285.095zm.024.074l.285-.095h0l-.285.095zm3.375 6.78l-.243.176h0l.243-.176zM56.687 23.9l.227.196-.227-.196zm2.959-8.486l.294.058h0l-.294-.058zm.057-.286l.294.059h0l-.294-.059zm1.645-2.742l.073.291-.073-.291zm.493-.493l.297.042.001-.007-.298-.035zm-.493-3.728l.079-.289h0l-.079.289zm-6.031-.439l-.013.3.013-.3zM38.1 9.59l.086.287-.086-.287zm-5.702 1.206v.3h.014l.014-.001-.027-.299zm-1.48.3h.603v-.6h-.603v.6zm-5.788-1.219c2.651.795 4.937 1.143 5.761 1.218l.054-.598c-.784-.071-3.03-.411-5.643-1.195l-.172.575zM8.012 8.025c2.555-.109 6.019.109 9.261.478s6.238.888 7.857 1.374l.172-.575c-1.672-.501-4.709-1.025-7.961-1.395s-6.755-.592-9.354-.481l.026.599zm-5.965.428c.562-.153.792-.208 5.965-.428l-.026-.599-6.097.449.158.579zm-.547.643c0-.218.037-.331.095-.406s.179-.162.452-.237l-.158-.579c-.33.09-.595.224-.768.449s-.22.497-.22.773h.6zm.272 2.761l-.171-1.533L1.5 9.096H.9c0 .217.048.742.104 1.289l.172 1.543.596-.071zm.268.238c-.107-.027-.171-.079-.21-.128-.021-.026-.036-.052-.045-.075-.005-.011-.008-.021-.011-.029l-.597.072c.031.22.222.618.718.742l.146-.582zm1.866 2.974c-.172-.861-.489-1.556-.827-2.056-.169-.25-.346-.454-.516-.607-.165-.148-.345-.266-.523-.311l-.146.582c.041.01.135.056.268.176.128.114.273.28.42.496.292.432.579 1.053.736 1.837l.588-.118zm.057.287l-.057-.287-.588.118.057.286.589-.116zm2.891 8.348c-.785-.908-1.418-2.502-1.902-4.146-.481-1.631-.803-3.26-.989-4.202l-.589.116 1.002 4.256c.486 1.647 1.147 3.354 2.024 4.369l.454-.392zm9.642 3.076c-2.002 0-4-.284-5.709-.816-1.715-.533-3.108-1.306-3.933-2.261l-.454.392c.929 1.074 2.442 1.891 4.209 2.441 1.773.551 3.832.843 5.887.843v-.6zm9.242-4.317c-2.072 2.869-5.263 4.317-9.242 4.317v.6c4.136 0 7.524-1.513 9.729-4.565l-.486-.351zm3.333-6.699c-.304.914-1.283 3.859-3.333 6.699l.486.351c2.107-2.917 3.109-5.936 3.416-6.861l-.569-.189zm.025-.074l-.025.074.569.189.024-.073-.569-.19zm2.039-1.795c-.436 0-.875.247-1.224.565-.355.325-.66.764-.816 1.23l.569.19a2.42 2.42 0 0 1 .651-.977c.296-.271.596-.408.819-.408v-.6zm.383 0h-.383v.6h.383v-.6zm0 .6h.274v-.6h-.274v.6zm.274 0h.383v-.6h-.383v.6zm.383 0c.222 0 .523.137.819.408.289.265.532.62.651.977l.569-.19c-.155-.466-.46-.905-.816-1.23-.348-.319-.788-.565-1.224-.565v.6zm1.47 1.385l.025.073.569-.189-.025-.074-.569.19zm.025.073c.307.925 1.309 3.943 3.416 6.861l.486-.351c-2.051-2.839-3.03-5.785-3.333-6.699l-.569.189zm3.416 6.861c2.205 3.052 5.593 4.566 9.729 4.566v-.6c-3.979 0-7.17-1.448-9.242-4.317l-.486.351zm9.729 4.566c2.055 0 4.114-.291 5.887-.843 1.767-.55 3.28-1.367 4.209-2.441l-.454-.392c-.826.955-2.219 1.727-3.933 2.261-1.709.531-3.707.816-5.709.816v.6zm10.096-3.284c.877-1.014 1.538-2.721 2.024-4.369.49-1.66.816-3.314 1.002-4.256l-.589-.116c-.186.943-.508 2.571-.989 4.202-.485 1.644-1.117 3.238-1.903 4.146l.454.392zm3.026-8.625l.057-.285-.588-.118-.057.287.589.116zm.057-.285c.157-.784.443-1.405.736-1.837.146-.216.292-.382.419-.496a.76.76 0 0 1 .268-.176l-.145-.582c-.178.045-.359.163-.523.311a3.31 3.31 0 0 0-.516.607c-.338.5-.655 1.195-.827 2.056l.588.118zm1.423-2.509c.495-.124.686-.523.718-.742l-.594-.085c-.005.021-.009.03-.014.042a.34.34 0 0 1-.045.075c-.04.049-.103.102-.21.128l.145.582zm.719-.749l.172-1.543c.056-.547.104-1.073.104-1.289h-.6c0 .178-.043.667-.101 1.228l-.171 1.533.596.071zm.276-2.832c0-.275-.045-.546-.22-.773s-.438-.359-.768-.449l-.158.579c.273.074.392.16.452.237s.095.188.095.406h.6zm-.989-1.222c-.644-.176-.962-.23-6.097-.449l-.026.599c5.173.22 5.403.275 5.965.428l.158-.579zm-6.097-.449c-2.599-.111-6.098.111-9.354.481s-6.29.894-7.961 1.395l.172.575c1.618-.485 4.612-1.004 7.857-1.374s6.706-.587 9.261-.478l.026-.599zM38.014 9.302c-2.613.784-4.859 1.124-5.643 1.195l.054.598c.825-.075 3.111-.422 5.761-1.218l-.172-.575zm-5.616 1.194h-.603v.6h.603v-.6zm-.603 0h-.274v.6h.274v-.6z" fill="#272932"/><g stroke="#272932"><path d="M4.997 10.7c.028.02.039.034.044.041-.005.007-.016.021-.044.041a.91.91 0 0 1-.258.116c-.239.073-.579.121-.961.121s-.722-.048-.961-.121a.91.91 0 0 1-.258-.116c-.028-.02-.039-.034-.044-.041.005-.007.016-.021.044-.041a.91.91 0 0 1 .258-.116c.239-.073.579-.121.961-.121s.722.048.961.121a.91.91 0 0 1 .258.116zm53.322 0c-.028.02-.039.034-.044.041.005.007.016.021.044.041a.91.91 0 0 0 .258.116c.239.073.579.121.961.121s.722-.048.961-.121a.91.91 0 0 0 .258-.116c.028-.02.039-.034.044-.041-.005-.007-.016-.021-.044-.041a.91.91 0 0 0-.258-.116c-.239-.073-.579-.121-.961-.121s-.722.048-.961.121a.91.91 0 0 0-.258.116z" stroke-width=".32"/><path d="M10.075 9.65c3.641-.263 6.799.055 8.992.384 1.316.179 4.057.493 6.47 1.974s.823 8.553-2.412 11.514-9.54 2.413-13.049 1.097-4.222-6.963-4.386-8.608-.164-6.031 4.386-6.36zm43.37 0c-3.641-.263-6.799.055-8.992.384-1.316.179-4.057.493-6.47 1.974s-.823 8.553 2.412 11.514 9.54 2.413 13.049 1.097 4.222-6.963 4.386-8.608.165-6.031-4.386-6.36z" stroke-width=".4"/></g><defs><filter id="A" x="-12.062" y="-8.047" width="56.263" height="51.327" filterUnits="userSpaceOnUse" color-interpolation-filters="sRGB"><feFlood flood-opacity="0"/><feGaussianBlur stdDeviation="8.8"/><feComposite in2="SourceAlpha" operator="in"/><feBlend in="SourceGraphic"/></filter><filter id="B" x="19.114" y="-8.047" width="56.263" height="51.327" filterUnits="userSpaceOnUse" color-interpolation-filters="sRGB"><feFlood flood-opacity="0"/><feGaussianBlur stdDeviation="8.8"/><feComposite in2="SourceAlpha" operator="in"/><feBlend in="SourceGraphic"/></filter><linearGradient id="C" x1="33.48" y1="15.161" x2="37.597" y2="9.355" xlink:href="#H"><stop stop-color="#b9ff25"/><stop offset="1" stop-color="#f9ffed"/></linearGradient><linearGradient id="D" x1="8.516" y1="1.575" x2="30.642" y2="26.632" xlink:href="#H"><stop stop-color="#fff"/><stop offset="1" stop-color="#fff" stop-opacity=".32"/></linearGradient><linearGradient id="E" x1="26.13" y1="25.972" x2="2.075" y2="11.629" xlink:href="#H"><stop stop-color="#fff" stop-opacity=".74"/><stop offset="1" stop-color="#f8f8f8" stop-opacity="0"/></linearGradient><linearGradient id="F" x1="54.799" y1="1.575" x2="32.673" y2="26.632" xlink:href="#H"><stop stop-color="#fff"/><stop offset="1" stop-color="#fff" stop-opacity=".32"/></linearGradient><linearGradient id="G" x1="37.184" y1="25.972" x2="61.24" y2="11.629" xlink:href="#H"><stop stop-color="#fff" stop-opacity=".74"/><stop offset="1" stop-color="#f8f8f8" stop-opacity="0"/></linearGradient><linearGradient id="H" gradientUnits="userSpaceOnUse"/></defs></svg>