<svg width="87" height="28" viewBox="0 0 87 28" fill="none" xmlns="http://www.w3.org/2000/svg">
<path d="M2 1L0.556624 3.5L3.44338 3.5L2 1ZM2 27L3.44338 24.5L0.556625 24.5L2 27ZM1.75 3.25L1.75 24.75L2.25 24.75L2.25 3.25L1.75 3.25Z" fill="#272932"/>
<path d="M39.9466 4.25623C43.2364 5.24316 43.4277 6.39062 43.9277 6.89062L44.579 8.51868C44.8102 9.09683 44.9552 9.70585 45.0093 10.3262C45.1063 11.4383 45.076 12.5657 44.6969 13.6157C44.0698 15.3525 42.8316 17.9019 40.9061 20.5679C38.2332 24.2688 34.121 26.1193 29.0494 26.1193C23.9777 26.1193 18.906 24.68 16.7128 22.1442C14.5197 19.6084 13.3545 13.2345 12.9433 11.1784C12.5321 9.12231 11.4355 7.88865 10.8872 7.75158C10.4486 7.64192 10.2933 7.29467 10.2704 7.13476C10.1562 6.17525 9.92773 4.13287 9.92773 3.6394C9.92773 3.02258 10.1333 2.6799 10.8872 2.47429C11.6411 2.26868 11.9838 2.20015 18.4262 1.926C24.8686 1.65186 35.8345 3.02258 39.9466 4.25623Z" fill="url(#paint0_linear_6813_98035)"/>
<g filter="url(#filter0_b_6813_98035)">
<path d="M20.8939 4.32492C25.4447 3.99594 29.3925 4.39347 32.1339 4.80469C33.7788 5.02854 37.2056 5.42151 40.2212 7.27199C43.2368 9.12247 41.2493 17.9636 37.2056 21.6646C33.162 25.3656 25.2803 24.6802 20.8939 23.0353C16.5075 21.3905 15.6166 14.3312 15.411 12.2751C15.2054 10.219 15.2054 4.73614 20.8939 4.32492Z" fill="url(#paint1_linear_6813_98035)"/>
<path d="M32.0598 5.29916L32.0598 5.29921L32.0665 5.30012C32.1366 5.30966 32.2097 5.31949 32.2855 5.32969C34.0053 5.56092 37.1704 5.98649 39.9597 7.69815C40.5336 8.05031 40.9323 8.77686 41.0966 9.85629C41.2593 10.9252 41.1763 12.2554 40.8719 13.6691C40.261 16.5059 38.7911 19.5357 36.8681 21.2958C34.9729 23.0303 32.1326 23.7708 29.1642 23.8549C26.2052 23.9387 23.2026 23.3671 21.0695 22.5672C19.0895 21.8247 17.8385 19.8302 17.0555 17.641C16.2798 15.4724 16.0103 13.2426 15.9085 12.2254C15.8084 11.224 15.7662 9.43753 16.4051 7.87215C16.7212 7.09764 17.1992 6.38915 17.9105 5.84994C18.62 5.31213 19.5908 4.92043 20.93 4.82362C25.4322 4.49816 29.3409 4.89132 32.0598 5.29916Z" stroke="url(#paint2_linear_6813_98035)"/>
</g>
<g filter="url(#filter1_b_6813_98035)">
<path d="M75.1051 4.32492C70.5543 3.99594 66.6065 4.39347 63.8651 4.80469C62.2203 5.02854 58.7934 5.42151 55.7778 7.27199C52.7622 9.12247 54.7497 17.9636 58.7934 21.6646C62.837 25.3656 70.7187 24.6802 75.1051 23.0353C79.4915 21.3905 80.3824 14.3312 80.588 12.2751C80.7936 10.219 80.7936 4.73614 75.1051 4.32492Z" fill="url(#paint3_linear_6813_98035)"/>
<path d="M63.9392 5.29916L63.9393 5.29921L63.9325 5.30012C63.8624 5.30966 63.7894 5.31949 63.7135 5.32969C61.9937 5.56092 58.8287 5.98649 56.0393 7.69815C55.4654 8.05031 55.0667 8.77686 54.9024 9.85629C54.7398 10.9252 54.8228 12.2554 55.1272 13.6691C55.7381 16.5059 57.2079 19.5357 59.131 21.2958C61.0261 23.0303 63.8665 23.7708 66.8349 23.8549C69.7938 23.9387 72.7964 23.3671 74.9295 22.5672C76.9095 21.8247 78.1605 19.8302 78.9435 17.641C79.7192 15.4724 79.9888 13.2426 80.0905 12.2254C80.1906 11.224 80.2328 9.43753 79.5939 7.87215C79.2778 7.09764 78.7998 6.38915 78.0885 5.84994C77.3791 5.31213 76.4083 4.92043 75.069 4.82362C70.5668 4.49816 66.6582 4.89132 63.9392 5.29916Z" stroke="url(#paint4_linear_6813_98035)"/>
</g>
<path d="M48.9248 5.76403V6.13903H48.9418L48.9588 6.13749L48.9248 5.76403ZM56.0526 4.25623L55.9448 3.89705V3.89705L56.0526 4.25623ZM77.573 1.926L77.557 2.30066L77.573 1.926ZM85.112 2.47429L85.0133 2.83607L85.112 2.47429ZM85.7288 7.13476L86.1001 7.1878L86.1012 7.17909L85.7288 7.13476ZM85.112 7.75158L85.021 7.38778L85.112 7.75158ZM83.0559 11.1784L83.4236 11.2519L83.4236 11.2519L83.0559 11.1784ZM82.985 11.5361L82.6171 11.4634V11.4634L82.985 11.5361ZM79.2864 22.1442L79.0027 21.8989V21.8989L79.2864 22.1442ZM55.0931 20.5679L54.7891 20.7874L55.0931 20.5679ZM50.8745 12.093L51.2304 11.9748V11.9748L50.8745 12.093ZM50.8438 12.0008L50.4881 12.1194L50.4881 12.1194L50.8438 12.0008ZM45.1554 12.0008L45.5111 12.1194L45.5111 12.1194L45.1554 12.0008ZM45.1247 12.093L44.7689 11.9748V11.9748L45.1247 12.093ZM40.9061 20.5679L41.2101 20.7874L40.9061 20.5679ZM16.7128 22.1442L16.4292 22.3895V22.3895L16.7128 22.1442ZM13.0142 11.5361L12.6463 11.6087L13.0142 11.5361ZM12.9433 11.1784L12.5756 11.2519L12.9433 11.1784ZM10.8872 7.75158L10.7963 8.11539H10.7963L10.8872 7.75158ZM10.2704 7.13476L9.89794 7.1791L9.89918 7.18779L10.2704 7.13476ZM10.8872 2.47429L10.9859 2.83607L10.8872 2.47429ZM18.4262 1.926L18.4422 2.30066L18.4262 1.926ZM39.9466 4.25623L40.0544 3.89705V3.89705L39.9466 4.25623ZM47.0744 5.76403L47.0405 6.13749L47.0574 6.13903H47.0744V5.76403ZM48.9248 5.38903H48.171V6.13903H48.9248V5.38903ZM55.9448 3.89705C52.6786 4.87691 49.8705 5.30151 48.8909 5.39057L48.9588 6.13749C49.9895 6.04379 52.847 5.60941 56.1603 4.61542L55.9448 3.89705ZM77.5889 1.55134C74.3398 1.41308 69.9659 1.6895 65.8965 2.1531C61.8309 2.61627 58.0342 3.27025 55.9448 3.89705L56.1603 4.61542C58.1832 4.00857 61.9254 3.36036 65.9814 2.89828C70.0335 2.43665 74.3637 2.16478 77.557 2.30066L77.5889 1.55134ZM85.2106 2.1125C84.4053 1.89286 84.008 1.82449 77.5889 1.55134L77.557 2.30066C84.0228 2.5758 84.3108 2.64449 85.0133 2.83607L85.2106 2.1125ZM86.4465 3.6394C86.4465 3.29507 86.3903 2.95693 86.1712 2.67335C85.954 2.39227 85.6233 2.22504 85.2106 2.1125L85.0133 2.83607C85.3546 2.92915 85.5036 3.03606 85.5777 3.13193C85.6498 3.2253 85.6965 3.36691 85.6965 3.6394H86.4465ZM86.1012 7.17909C86.1584 6.69795 86.2443 5.94546 86.316 5.25078C86.3865 4.5671 86.4465 3.91012 86.4465 3.6394H85.6965C85.6965 3.86215 85.6422 4.47309 85.5699 5.17384C85.4988 5.8636 85.4134 6.61205 85.3564 7.09043L86.1012 7.17909ZM85.2029 8.11539C85.8222 7.96057 86.0608 7.46223 86.1 7.18778L85.3576 7.08173C85.3576 7.08173 85.3575 7.08212 85.3574 7.08291C85.3572 7.08369 85.357 7.08479 85.3567 7.08621C85.3561 7.08908 85.3551 7.09295 85.3537 7.09774C85.3509 7.10742 85.3466 7.11973 85.3405 7.1339C85.3281 7.16244 85.3095 7.19522 85.2836 7.22759C85.2342 7.28926 85.1545 7.3544 85.021 7.38778L85.2029 8.11539ZM83.4236 11.2519C83.6196 10.2717 83.9775 9.4959 84.3431 8.95547C84.5262 8.6849 84.7079 8.47803 84.8675 8.33493C85.0344 8.1853 85.1516 8.12822 85.2029 8.11539L85.021 7.38778C84.7982 7.44348 84.5727 7.59201 84.3669 7.7765C84.1538 7.96751 83.933 8.22326 83.7219 8.53524C83.2993 9.15993 82.9033 10.029 82.6882 11.1049L83.4236 11.2519ZM83.3529 11.6087C83.3786 11.4783 83.4021 11.3592 83.4236 11.2519L82.6882 11.1048C82.6665 11.2131 82.6428 11.3332 82.6171 11.4634L83.3529 11.6087ZM79.57 22.3895C80.6667 21.1214 81.4929 18.988 82.1002 16.9286C82.7124 14.853 83.1203 12.7862 83.3529 11.6087L82.6171 11.4634C82.3843 12.6419 81.9821 14.6777 81.3809 16.7164C80.7748 18.7714 79.9843 20.764 79.0027 21.8989L79.57 22.3895ZM66.9498 26.4943C69.5188 26.4943 72.0926 26.1301 74.3089 25.4408C76.5177 24.7538 78.4089 23.7321 79.57 22.3895L79.0027 21.8989C77.9707 23.0922 76.2295 24.058 74.0862 24.7246C71.9504 25.3889 69.4526 25.7443 66.9498 25.7443V26.4943ZM54.7891 20.7874C57.5447 24.6029 61.7802 26.4943 66.9498 26.4943V25.7443C61.9761 25.7443 57.9873 23.9347 55.3971 20.3483L54.7891 20.7874ZM50.5186 12.2113C50.9025 13.3671 52.1552 17.1406 54.7891 20.7874L55.3971 20.3483C52.8337 16.7991 51.6099 13.1173 51.2304 11.9748L50.5186 12.2113ZM50.4881 12.1194C50.4975 12.1478 50.5077 12.1783 50.5186 12.2113L51.2304 11.9748C51.2195 11.942 51.2092 11.911 51.1996 11.8822L50.4881 12.1194ZM48.6507 10.3883C48.9284 10.3883 49.3041 10.5597 49.674 10.8982C50.0356 11.229 50.3393 11.6733 50.4881 12.1194L51.1996 11.8822C51.0056 11.3003 50.624 10.7508 50.1803 10.3449C49.7449 9.94657 49.1954 9.63828 48.6507 9.63828V10.3883ZM48.171 10.3883H48.6507V9.63828H48.171V10.3883ZM48.171 9.63828H47.8282V10.3883H48.171V9.63828ZM47.8282 9.63828H47.3486V10.3883H47.8282V9.63828ZM47.3486 9.63828C46.8038 9.63828 46.2543 9.94657 45.8189 10.3449C45.3752 10.7508 44.9936 11.3003 44.7996 11.8822L45.5111 12.1194C45.6599 11.6733 45.9636 11.229 46.3252 10.8982C46.6952 10.5597 47.0709 10.3883 47.3486 10.3883V9.63828ZM44.7996 11.8822C44.79 11.911 44.7798 11.942 44.7689 11.9748L45.4806 12.2113C45.4915 12.1783 45.5017 12.1478 45.5111 12.1194L44.7996 11.8822ZM44.7689 11.9748C44.3893 13.1173 43.1655 16.7991 40.6021 20.3483L41.2101 20.7874C43.844 17.1406 45.0967 13.3671 45.4806 12.2113L44.7689 11.9748ZM40.6021 20.3483C38.0119 23.9347 34.0231 25.7443 29.0494 25.7443V26.4943C34.219 26.4943 38.4545 24.6029 41.2101 20.7874L40.6021 20.3483ZM29.0494 25.7443C26.5466 25.7443 24.0488 25.3889 21.913 24.7246C19.7697 24.058 18.0285 23.0922 16.9965 21.8989L16.4292 22.3895C17.5903 23.7321 19.4815 24.7538 21.6903 25.4408C23.9066 26.1301 26.4804 26.4943 29.0494 26.4943V25.7443ZM16.9965 21.8989C16.015 20.764 15.2244 18.7714 14.6184 16.7165C14.0171 14.6778 13.6149 12.642 13.3821 11.4634L12.6463 11.6087C12.8789 12.7862 13.2868 14.853 13.899 16.9286C14.5064 18.988 15.3325 21.1214 16.4292 22.3895L16.9965 21.8989ZM13.3821 11.4634C13.3564 11.3333 13.3327 11.2131 13.311 11.1049L12.5756 11.2519C12.5971 11.3592 12.6206 11.4783 12.6463 11.6087L13.3821 11.4634ZM13.311 11.1049C13.0959 10.029 12.6999 9.15993 12.2773 8.53524C12.0662 8.22326 11.8454 7.96751 11.6323 7.7765C11.4265 7.59201 11.201 7.44348 10.9782 7.38778L10.7963 8.11539C10.8476 8.12822 10.9648 8.1853 11.1317 8.33493C11.2913 8.47803 11.473 8.6849 11.6561 8.95547C12.0217 9.4959 12.3796 10.2717 12.5756 11.2519L13.311 11.1049ZM10.9782 7.38778C10.8447 7.3544 10.765 7.28926 10.7156 7.22759C10.6897 7.19522 10.6711 7.16244 10.6588 7.13389C10.6526 7.11973 10.6483 7.10742 10.6455 7.09774C10.6441 7.09295 10.6431 7.08907 10.6425 7.0862C10.6422 7.08478 10.642 7.08368 10.6418 7.0829C10.6418 7.08251 10.6417 7.08222 10.6417 7.08202C10.6417 7.08182 10.6416 7.08172 10.6416 7.08172L9.89918 7.18779C9.93839 7.46223 10.177 7.96057 10.7963 8.11539L10.9782 7.38778ZM10.6428 7.09043C10.5858 6.61205 10.5004 5.8636 10.4293 5.17384C10.357 4.47309 10.3027 3.86215 10.3027 3.6394H9.55273C9.55273 3.91012 9.61271 4.5671 9.68322 5.25078C9.75486 5.94546 9.84077 6.69795 9.89805 7.17909L10.6428 7.09043ZM10.3027 3.6394C10.3027 3.36691 10.3494 3.2253 10.4215 3.13193C10.4956 3.03606 10.6446 2.92915 10.9859 2.83607L10.7886 2.1125C10.3759 2.22504 10.0452 2.39227 9.82804 2.67335C9.60891 2.95693 9.55273 3.29507 9.55273 3.6394H10.3027ZM10.9859 2.83607C11.6884 2.64449 11.9764 2.5758 18.4422 2.30066L18.4103 1.55134C11.9912 1.82449 11.5939 1.89286 10.7886 2.1125L10.9859 2.83607ZM18.4422 2.30066C21.6355 2.16478 25.9657 2.43665 30.0178 2.89828C34.0738 3.36036 37.816 4.00857 39.8389 4.61542L40.0544 3.89705C37.965 3.27025 34.1683 2.61627 30.1027 2.1531C26.0333 1.6895 21.6594 1.41308 18.4103 1.55134L18.4422 2.30066ZM39.8389 4.61542C43.1522 5.60941 46.0097 6.04379 47.0405 6.13749L47.1084 5.39057C46.1287 5.30151 43.3206 4.87691 40.0544 3.89705L39.8389 4.61542ZM47.0744 6.13903H47.8282V5.38903H47.0744V6.13903ZM47.8282 6.13903H48.171V5.38903H47.8282V6.13903Z" fill="#272932"/>
<path d="M14.6734 5.63723C14.7079 5.66231 14.7223 5.67988 14.7282 5.68892C14.7223 5.69795 14.7079 5.71552 14.6734 5.7406C14.6081 5.78806 14.5009 5.83914 14.3503 5.88546C14.0517 5.97735 13.627 6.03721 13.1491 6.03721C12.6713 6.03721 12.2466 5.97735 11.9479 5.88546C11.7974 5.83914 11.6901 5.78806 11.6249 5.7406C11.5904 5.71552 11.5759 5.69795 11.5701 5.68892C11.5759 5.67988 11.5904 5.66231 11.6249 5.63723C11.6901 5.58977 11.7974 5.53869 11.9479 5.49237C12.2466 5.40048 12.6713 5.34063 13.1491 5.34063C13.627 5.34063 14.0517 5.40048 14.3503 5.49237C14.5009 5.53869 14.6081 5.58977 14.6734 5.63723Z" stroke="#272932" stroke-width="0.4"/>
<path d="M81.3256 5.63723C81.2912 5.66231 81.2767 5.67988 81.2708 5.68892C81.2767 5.69795 81.2912 5.71552 81.3256 5.7406C81.3909 5.78806 81.4981 5.83914 81.6487 5.88546C81.9473 5.97735 82.3721 6.03721 82.8499 6.03721C83.3277 6.03721 83.7525 5.97735 84.0511 5.88546C84.2016 5.83914 84.3089 5.78806 84.3741 5.7406C84.4086 5.71552 84.4231 5.69795 84.4289 5.68892C84.4231 5.67988 84.4086 5.66231 84.3741 5.63723C84.3089 5.58977 84.2016 5.53869 84.0511 5.49237C83.7525 5.40048 83.3277 5.34063 82.8499 5.34063C82.3721 5.34063 81.9473 5.40048 81.6487 5.49237C81.4981 5.53869 81.3909 5.58977 81.3256 5.63723Z" stroke="#272932" stroke-width="0.4"/>
<path d="M21.0219 4.32492C25.5727 3.99594 29.5204 4.39347 32.2619 4.80469C33.9067 5.02854 37.3336 5.42151 40.3492 7.27199C43.3648 9.12247 41.3772 17.9636 37.3336 21.6646C33.2899 25.3656 25.4082 24.6802 21.0219 23.0353C16.6355 21.3905 15.7446 14.3312 15.539 12.2751C15.3334 10.219 15.3334 4.73614 21.0219 4.32492Z" stroke="#272932" stroke-width="0.5"/>
<path d="M75.234 4.32492C70.6832 3.99594 66.7354 4.39347 63.994 4.80469C62.3492 5.02854 58.9223 5.42151 55.9067 7.27199C52.8911 9.12247 54.8787 17.9636 58.9223 21.6646C62.9659 25.3656 70.8476 24.6802 75.234 23.0353C79.6204 21.3905 80.5113 14.3312 80.7169 12.2751C80.9225 10.219 80.9225 4.73614 75.234 4.32492Z" stroke="#272932" stroke-width="0.5"/>
<defs>
<filter id="filter0_b_6813_98035" x="-6.64941" y="-17.7969" width="70.3281" height="64.1602" filterUnits="userSpaceOnUse" color-interpolation-filters="sRGB">
<feFlood flood-opacity="0" result="BackgroundImageFix"/>
<feGaussianBlur in="BackgroundImageFix" stdDeviation="11"/>
<feComposite in2="SourceAlpha" operator="in" result="effect1_backgroundBlur_6813_98035"/>
<feBlend mode="normal" in="SourceGraphic" in2="effect1_backgroundBlur_6813_98035" result="shape"/>
</filter>
<filter id="filter1_b_6813_98035" x="32.3203" y="-17.7969" width="70.3281" height="64.1602" filterUnits="userSpaceOnUse" color-interpolation-filters="sRGB">
<feFlood flood-opacity="0" result="BackgroundImageFix"/>
<feGaussianBlur in="BackgroundImageFix" stdDeviation="11"/>
<feComposite in2="SourceAlpha" operator="in" result="effect1_backgroundBlur_6813_98035"/>
<feBlend mode="normal" in="SourceGraphic" in2="effect1_backgroundBlur_6813_98035" result="shape"/>
</filter>
<linearGradient id="paint0_linear_6813_98035" x1="27.5416" y1="1.89062" x2="27.5416" y2="26.1193" gradientUnits="userSpaceOnUse">
<stop stop-color="#B9FF25"/>
<stop offset="1" stop-color="#FBFFF1"/>
</linearGradient>
<linearGradient id="paint1_linear_6813_98035" x1="19.0725" y1="-5.76923" x2="46.73" y2="25.5516" gradientUnits="userSpaceOnUse">
<stop stop-color="white"/>
<stop offset="1" stop-color="white" stop-opacity="0.32"/>
</linearGradient>
<linearGradient id="paint2_linear_6813_98035" x1="41.0906" y1="24.7271" x2="11.0217" y2="6.79792" gradientUnits="userSpaceOnUse">
<stop stop-color="white" stop-opacity="0.74"/>
<stop offset="1" stop-color="#F8F8F8" stop-opacity="0"/>
</linearGradient>
<linearGradient id="paint3_linear_6813_98035" x1="76.9265" y1="-5.76923" x2="49.269" y2="25.5516" gradientUnits="userSpaceOnUse">
<stop stop-color="white"/>
<stop offset="1" stop-color="white" stop-opacity="0.32"/>
</linearGradient>
<linearGradient id="paint4_linear_6813_98035" x1="54.9084" y1="24.7271" x2="84.9774" y2="6.79792" gradientUnits="userSpaceOnUse">
<stop stop-color="white" stop-opacity="0.74"/>
<stop offset="1" stop-color="#F8F8F8" stop-opacity="0"/>
</linearGradient>
</defs>
</svg>
