<svg xmlns="http://www.w3.org/2000/svg" xmlns:xlink="http://www.w3.org/1999/xlink" width="63" height="29" fill="none" xmlns:v="https://vecta.io/nano"><path d="M4.6 1.5l2 1.155V.345L4.6 1.5zm20.8 0l-2-1.155v2.309l2-1.155zm-19 .2h17.2v-.4H6.4v.4z" fill="#272932"/><path d="M24.958 10.59c2.632.79 2.785 1.708 3.185 2.108L28.663 14c.185.463.301.95.344 1.446.078.89.053 1.792-.25 2.632-.502 1.39-1.492 3.429-3.033 5.562-2.138 2.961-5.428 4.441-9.485 4.441s-8.115-1.151-9.869-3.18-2.687-7.128-3.016-8.773-1.206-2.632-1.645-2.742c-.351-.088-.475-.366-.493-.494-.091-.768-.274-2.402-.274-2.796 0-.494.164-.768.768-.932s.877-.219 6.031-.439 13.927.877 17.216 1.864z" fill="url(#C)"/><g filter="url(#A)"><path d="M9.716 10.644c3.641-.263 6.799.055 8.992.384 1.316.179 4.057.493 6.47 1.974s.822 8.554-2.413 11.515-9.54 2.413-13.049 1.097-4.222-6.964-4.386-8.609-.164-6.031 4.386-6.36z" fill="url(#D)"/><path d="M18.6486 11.4237L18.6486 11.4238L18.654 11.4245C18.7101 11.4321 18.7685 11.44 18.8292 11.4482C20.205 11.6332 22.7371 11.9736 24.9685 13.343C25.4277 13.6248 25.7466 14.2061 25.878 15.0697C26.0082 15.9248 25.9418 16.9891 25.6982 18.1201C25.2095 20.3897 24.0337 22.8136 22.4952 24.2218C20.9791 25.6095 18.7068 26.2019 16.3321 26.2692C13.9649 26.3362 11.5629 25.8789 9.85639 25.2389C8.27242 24.6449 7.27161 23.0493 6.64518 21.2978C6.02461 19.5628 5.80901 17.7789 5.72763 16.965C5.64752 16.1639 5.61374 14.7346 6.12488 13.4822C6.37778 12.8626 6.76018 12.2958 7.32922 11.8644C7.89677 11.4341 8.67339 11.1207 9.74477 11.0433C13.3465 10.7829 16.4735 11.0975 18.6486 11.4237Z" stroke="url(#E)" stroke-width=".8"/></g><g filter="url(#B)"><path d="M53.085 10.644c-3.641-.263-6.799.055-8.992.384-1.316.179-4.057.493-6.47 1.974s-.822 8.554 2.413 11.515 9.54 2.413 13.049 1.097 4.222-6.964 4.386-8.609.164-6.031-4.386-6.36z" fill="url(#F)"/><path d="M44.1522 11.4237L44.1522 11.4238L44.1468 11.4245C44.0907 11.4321 44.0323 11.44 43.9716 11.4482C42.5958 11.6332 40.0637 11.9736 37.8322 13.343C37.3731 13.6248 37.0542 14.2061 36.9228 15.0697C36.7926 15.9248 36.859 16.9891 37.1025 18.1201C37.5912 20.3897 38.7671 22.8136 40.3056 24.2218C41.8217 25.6095 44.094 26.2019 46.4687 26.2692C48.8358 26.3362 51.2379 25.8789 52.9444 25.2389C54.5284 24.6449 55.5292 23.0493 56.1556 21.2978C56.7762 19.5628 56.9918 17.7789 57.0731 16.965C57.1533 16.1639 57.187 14.7346 56.6759 13.4822C56.423 12.8626 56.0406 12.2958 55.4716 11.8644C54.904 11.4341 54.1274 11.1207 53.056 11.0433C49.4542 10.7829 46.3273 11.0975 44.1522 11.4237Z" stroke="url(#G)" stroke-width=".8"/></g><path d="M30.66 11.781l-.027.299.014.001h.014v-.3zm-5.702-1.206l.086-.287h0l-.086.287zM7.741 8.71l.013.3-.013-.3zm-6.031.439l-.079-.289.079.289zm-.493 3.729l-.298.035.001.007.297-.042zm.493.493l.073-.291h0l-.073.291zm1.645 2.742l.294-.059h0l-.294.059zm.057.286l-.294.058.294-.058zm2.959 8.487l.227-.196-.227.196zm19.355-1.261l.243.176-.243-.176zm3.375-6.78l.285.095h0l-.285-.095zm.024-.074l-.285-.095h0l.285.095zm4.551 0l-.285.095h0l.285-.095zm.025.074l.285-.095h0l-.285.095zm3.375 6.78l.243-.176-.243.176zm19.355 1.261l.227.196-.227-.196zm2.959-8.487l.294.058h0l-.294-.058zm.057-.286l.294.059h0l-.294-.059zm1.645-2.742l.073.291-.073-.291zm.493-.493l.297.042.001-.007-.298-.035zm-.493-3.729l.079-.289h0l-.079.289zm-6.031-.439l-.013.3.013-.3zm-17.216 1.864l-.086-.287h0l.086.287zm-5.702 1.206v.3h.014l.014-.001-.027-.299zm-1.481.3h.604v-.6h-.604v.6zm-5.788-1.219c2.651.795 4.937 1.143 5.761 1.218l.054-.598c-.784-.071-3.03-.411-5.643-1.195l-.172.575zM7.754 9.01c2.555-.109 6.019.109 9.261.478s6.238.888 7.857 1.374l.172-.575c-1.672-.501-4.709-1.025-7.961-1.395S10.328 8.3 7.728 8.41l.026.599zm-5.965.428c.562-.153.792-.208 5.965-.428l-.026-.599-6.097.449.158.579zm-.547.643c0-.218.037-.331.095-.406s.179-.162.452-.237l-.158-.579c-.33.09-.595.224-.768.449s-.22.497-.22.773h.6zm.272 2.761l-.171-1.533-.101-1.228h-.6c0 .217.048.742.104 1.289l.172 1.543.596-.071zm.268.238c-.107-.027-.171-.079-.21-.128-.021-.026-.036-.052-.045-.075-.005-.011-.008-.021-.011-.029l-.597.072c.031.22.222.618.718.742l.146-.582zm1.866 2.974c-.172-.861-.489-1.556-.827-2.056-.169-.25-.346-.454-.516-.607-.165-.148-.345-.266-.523-.311l-.146.582c.041.01.135.056.268.176.128.114.273.28.42.496.292.432.579 1.053.736 1.837l.588-.118zm.057.287l-.057-.287-.588.118.057.286.589-.116zm2.891 8.349c-.785-.908-1.418-2.502-1.902-4.146-.481-1.631-.803-3.26-.989-4.203l-.589.116 1.002 4.256c.486 1.648 1.147 3.354 2.024 4.369l.454-.393zm9.642 3.076c-2.002 0-4-.284-5.709-.816-1.715-.533-3.108-1.306-3.933-2.261l-.454.393c.929 1.074 2.442 1.891 4.209 2.441 1.773.552 3.832.843 5.887.843v-.6zm9.242-4.317c-2.072 2.869-5.263 4.317-9.242 4.317v.6c4.136 0 7.524-1.513 9.729-4.566l-.486-.351zm3.333-6.699c-.304.914-1.283 3.86-3.333 6.699l.486.351c2.107-2.918 3.109-5.937 3.416-6.861l-.569-.189zm.025-.074l-.025.074.569.189.024-.073-.569-.19zm2.039-1.795c-.436 0-.875.247-1.224.565-.355.325-.66.764-.815 1.23l.569.19a2.42 2.42 0 0 1 .651-.977c.296-.271.596-.408.819-.408v-.6zm.384 0h-.384v.6h.384v-.6zm0 .6h.274v-.6h-.274v.6zm.274 0h.384v-.6h-.384v.6zm.384 0c.222 0 .523.137.819.408a2.42 2.42 0 0 1 .651.977l.569-.19c-.155-.466-.46-.905-.815-1.23-.348-.319-.788-.565-1.224-.565v.6zm1.47 1.385l.024.073.57-.189-.025-.074-.569.19zm.024.073c.307.925 1.309 3.944 3.416 6.861l.486-.351c-2.051-2.839-3.03-5.785-3.333-6.699l-.57.189zm3.416 6.861c2.204 3.053 5.593 4.566 9.729 4.566v-.6c-3.979 0-7.17-1.448-9.242-4.317l-.486.351zm9.729 4.566c2.055 0 4.114-.291 5.887-.843 1.767-.55 3.28-1.367 4.209-2.441l-.454-.393c-.826.955-2.219 1.727-3.933 2.261-1.709.531-3.707.816-5.709.816v.6zm10.096-3.284c.877-1.015 1.538-2.721 2.024-4.369.49-1.661.816-3.314 1.002-4.256l-.589-.116c-.186.943-.508 2.572-.989 4.203-.485 1.644-1.117 3.238-1.902 4.146l.454.393zm3.026-8.625l.057-.285-.588-.118-.057.287.589.116zm.057-.285c.157-.784.443-1.405.736-1.837a2.71 2.71 0 0 1 .419-.496.76.76 0 0 1 .268-.176l-.145-.582c-.178.045-.359.163-.523.311-.171.153-.347.357-.516.607-.338.5-.655 1.195-.827 2.056l.588.118zm1.423-2.509c.495-.124.686-.522.718-.742l-.594-.085c-.005.021-.009.03-.014.042-.01.023-.025.049-.045.075-.04.049-.103.101-.21.128l.145.582zm.719-.749l.172-1.543c.056-.547.104-1.073.104-1.289h-.6c0 .178-.044.667-.101 1.228l-.171 1.533.596.071zm.276-2.832c0-.275-.045-.546-.22-.773s-.438-.359-.768-.449l-.158.579c.273.074.392.16.451.237s.095.188.095.406h.6zm-.989-1.222c-.644-.176-.962-.23-6.097-.449l-.026.599c5.173.22 5.403.275 5.965.428l.158-.579zm-6.097-.449c-2.599-.111-6.098.111-9.354.481s-6.29.894-7.961 1.395l.172.575c1.618-.486 4.612-1.004 7.857-1.374s6.706-.587 9.261-.478l.026-.599zm-17.315 1.877c-2.613.784-4.859 1.124-5.643 1.195l.054.598c.825-.075 3.111-.422 5.761-1.218l-.172-.575zm-5.616 1.194h-.603v.6h.603v-.6zm-.603 0h-.274v.6h.274v-.6z" fill="#272932"/><g stroke="#272932"><path d="M4.74 11.692c.028.02.039.034.044.041-.005.007-.016.021-.044.041-.052.038-.138.079-.258.116-.239.073-.579.121-.961.121s-.722-.048-.961-.121c-.12-.037-.206-.078-.258-.116-.028-.02-.039-.034-.044-.041.005-.007.016-.021.044-.041.052-.038.138-.079.258-.116.239-.073.579-.121.961-.121s.722.048.961.121c.12.037.206.078.258.116zm53.321 0c-.028.02-.039.034-.044.041.005.007.016.021.044.041.052.038.138.079.258.116.239.073.579.121.961.121s.722-.048.961-.121c.12-.037.206-.078.258-.116.028-.02.039-.034.044-.041-.005-.007-.016-.021-.044-.041-.052-.038-.138-.079-.258-.116-.239-.073-.579-.121-.961-.121s-.722.048-.961.121c-.12.037-.206.078-.258.116z" stroke-width=".32"/><path d="M9.817 10.648c3.641-.263 6.799.055 8.992.384 1.316.179 4.057.493 6.47 1.974s.823 8.554-2.412 11.515-9.54 2.413-13.049 1.097-4.222-6.964-4.386-8.609-.164-6.032 4.386-6.361zm43.37 0c-3.641-.263-6.799.055-8.992.384-1.316.179-4.057.493-6.47 1.974s-.822 8.554 2.412 11.515 9.54 2.413 13.049 1.097 4.222-6.964 4.386-8.609.164-6.032-4.386-6.361z" stroke-width=".4"/></g><defs><filter id="A" x="-12.319" y="-7.054" width="56.264" height="51.33" filterUnits="userSpaceOnUse" color-interpolation-filters="sRGB"><feFlood flood-opacity="0"/><feGaussianBlur stdDeviation="8.8"/><feComposite in2="SourceAlpha" operator="in"/><feBlend in="SourceGraphic"/></filter><filter id="B" x="18.857" y="-7.054" width="56.264" height="51.33" filterUnits="userSpaceOnUse" color-interpolation-filters="sRGB"><feFlood flood-opacity="0"/><feGaussianBlur stdDeviation="8.8"/><feComposite in2="SourceAlpha" operator="in"/><feBlend in="SourceGraphic"/></filter><linearGradient id="C" x1="15.033" y1="8.697" x2="15.033" y2="28.081" xlink:href="#H"><stop stop-color="#b9ff25"/><stop offset="1" stop-color="#fbfff1"/></linearGradient><linearGradient id="D" x1="8.259" y1="2.569" x2="30.386" y2="27.625" xlink:href="#H"><stop stop-color="#fff"/><stop offset="1" stop-color="#fff" stop-opacity=".32"/></linearGradient><linearGradient id="E" x1="25.873" y1="26.967" x2="1.817" y2="12.624" xlink:href="#H"><stop stop-color="#fff" stop-opacity=".74"/><stop offset="1" stop-color="#f8f8f8" stop-opacity="0"/></linearGradient><linearGradient id="F" x1="54.542" y1="2.569" x2="32.415" y2="27.625" xlink:href="#H"><stop stop-color="#fff"/><stop offset="1" stop-color="#fff" stop-opacity=".32"/></linearGradient><linearGradient id="G" x1="36.928" y1="26.967" x2="60.983" y2="12.624" xlink:href="#H"><stop stop-color="#fff" stop-opacity=".74"/><stop offset="1" stop-color="#f8f8f8" stop-opacity="0"/></linearGradient><linearGradient id="H" gradientUnits="userSpaceOnUse"/></defs></svg>