<svg xmlns="http://www.w3.org/2000/svg" width="69" height="28" fill="none" xmlns:v="https://vecta.io/nano"><style><![CDATA[.B{stroke-linejoin:round}.C{stroke-linecap:round}]]></style><path d="M7.8 1.4l2 1.155V.246L7.8 1.4zm60 0l-2-1.155v2.309l2-1.155zm-58.2.2H66v-.4H9.6v.4z" fill="#272932"/><path d="M7.428 14.45c-.051-.005-.188-.036-.188-.083l.409-4.168c1.014 0 4.823.121 11.948.604s17.166 1.813 21.296 2.418c1.316.195 5.383.927 11.121 2.297 7.173 1.713 14.003 7.173 15.272 8.281s-.504 2.559-2.357 2.962-2.599-.504-3.667-1.491-4.231-4.594-8.26-6.467-11.948.383-13.116.645c-.935.21-2.136.087-2.619 0L7.428 14.45z" fill="url(#A)"/><g stroke="#272932"><g stroke-width=".4" class="B C"><path d="M3.905 10.115c-.081.014-.326-.008-.343.202l-.121 3.687c0 .101.06.161.383.161"/><path d="M6.089 14.244c-.416-.034-1.418-.026-1.66-.042-.302-.02-1.128-.242-1.148.584s.987 8.805.725 10.517c-.188 1.229-.544 1.531-.725 1.612m1.573-12.668c-.302-.02-.626.442-.546 1.168l.705 9.933c-.188 1.229-.544 1.511-.726 1.592"/></g><path d="M.923 9.773C.89 9.645.798 9.346.702 9.168.581 8.947.601 8.765.601 8.463s.081-.484.463-.544 1.269-.242 1.713 0S5.275 9.41 6.162 9.652s1.632.242 1.572.564m-.449 4.11c-.098.058-.164.072-.438.04s-.692-.04-.866-.04c-.175.188-.504 1.443-.423 4.956.101 4.392.766 6.89-.423 7.394s-2.095.443-2.398-.242c-.242-.548-.544-2.565-.665-3.506m5.662-12.713c1.014 0 4.823.121 11.948.604s17.166 1.813 21.296 2.418c1.316.195 5.383.927 11.121 2.297 7.173 1.713 14.003 7.173 15.272 8.281s-.504 2.559-2.357 2.962-2.599-.504-3.667-1.491-4.231-4.594-8.261-6.467-11.948.383-13.116.645c-.935.21-2.136.087-2.619 0L7.512 14.466c-.051-.005-.188-.036-.188-.083" stroke-width=".6" class="B C"/><g stroke-width=".4" class="B"><path d="M7.733 10.215c-.161.403-.201.705-.222 1.088L7.29 13.7l.02.604" class="C"/><path d="M3.3 25.935c-.387-.29-.981-2.122-1.229-3.002-.242-.92-.778-3.417-.987-6.044-.262-3.284-.201-6.81-.161-7.112l.081-.604c.081.067.29.258.484.483.886.891 1.31 6.629 1.471 8.059l.604 6.185c0 .443.081 1.431-.262 2.035z" fill="#fff"/><path d="M.822 7.996c.47.255 1.58.923 2.095 1.39.645.584.685.746 1.148.725s3.002.101 3.566.322" class="C"/></g><path d="M3.161 11.909a.49.49 0 0 1-.087.289c-.051.068-.108.095-.156.095s-.106-.026-.156-.095a.49.49 0 0 1-.087-.289.49.49 0 0 1 .087-.289c.051-.068.108-.095.156-.095s.106.026.156.095a.49.49 0 0 1 .087.289z" stroke-width=".32"/></g><defs><linearGradient id="A" x1="46.104" y1="25.954" x2="54.262" y2="5.837" gradientUnits="userSpaceOnUse"><stop stop-color="#b9ff25"/><stop offset="1" stop-color="#f9ffed"/></linearGradient></defs></svg>